HIERARCHY
ROOT Hips
{
	OFFSET 0.000000 0.000000 0.000000
	CHANNELS 6 Xposition Yposition Zposition Zrotation Yrotation Xrotation 
	JOINT LHipJoint
	{
		OFFSET 0.000000 0.000000 0.000000
		CHANNELS 3 Zrotation Yrotation Xrotation
		JOINT LeftUpLeg
		{
			OFFSET 1.363060 -1.794630 0.839290
			CHANNELS 3 Zrotation Yrotation Xrotation
			JOINT LeftLeg
			{
				OFFSET 2.448110 -6.726130 0.000000
				CHANNELS 3 Zrotation Yrotation Xrotation
				JOINT LeftFoot
				{
					OFFSET 2.562200 -7.039590 0.000000
					CHANNELS 3 Zrotation Yrotation Xrotation
					JOINT LeftToeBase
					{
						OFFSET 0.157640 -0.433110 2.322550
						CHANNELS 3 Zrotation Yrotation Xrotation
						End Site
						{
							OFFSET 0.000000 0.000000 0.000000
						}
					}
				}
			}
		}
	}
	JOINT RHipJoint
	{
		OFFSET 0.000000 0.000000 0.000000
		CHANNELS 3 Zrotation Yrotation Xrotation
		JOINT RightUpLeg
		{
			OFFSET -1.305520 -1.794630 0.839290
			CHANNELS 3 Zrotation Yrotation Xrotation
			JOINT RightLeg
			{
				OFFSET -2.542530 -6.985550 0.000000
				CHANNELS 3 Zrotation Yrotation Xrotation
				JOINT RightFoot
				{
					OFFSET -2.568260 -7.056230 0.000000
					CHANNELS 3 Zrotation Yrotation Xrotation
					JOINT RightToeBase
					{
						OFFSET -0.164730 -0.452590 2.363150
						CHANNELS 3 Zrotation Yrotation Xrotation
						End Site
						{
							OFFSET 0.000000 0.000000 0.000000
						}
					}
				}
			}
		}
	}
	JOINT LowerBack
	{
		OFFSET 0.000000 0.000000 0.000000
		CHANNELS 3 Zrotation Yrotation Xrotation
		JOINT Spine
		{
			OFFSET 0.028270 2.035590 -0.193380
			CHANNELS 3 Zrotation Yrotation Xrotation
			JOINT Spine1
			{
				OFFSET 0.056720 2.048850 -0.042750
				CHANNELS 3 Zrotation Yrotation Xrotation
				JOINT Neck
				{
					OFFSET 0.000000 0.000000 0.000000
					CHANNELS 3 Zrotation Yrotation Xrotation
					JOINT Neck1
					{
						OFFSET -0.054170 1.746240 0.172020
						CHANNELS 3 Zrotation Yrotation Xrotation
						JOINT Head
						{
							OFFSET 0.104070 1.761360 -0.123970
							CHANNELS 3 Zrotation Yrotation Xrotation
							End Site
							{
								OFFSET 0.000000 0.000000 0.000000
							}
						}
					}
				}
				JOINT LeftShoulder
				{
					OFFSET 0.000000 0.000000 0.000000
					CHANNELS 3 Zrotation Yrotation Xrotation
					JOINT LeftArm
					{
						OFFSET 3.362410 1.200890 -0.311210
						CHANNELS 3 Zrotation Yrotation Xrotation
						JOINT LeftForeArm
						{
							OFFSET 4.983000 -0.000000 -0.000000
							CHANNELS 3 Zrotation Yrotation Xrotation
							JOINT LeftHand
							{
								OFFSET 3.483560 -0.000000 -0.000000
								CHANNELS 3 Zrotation Yrotation Xrotation
								JOINT LeftFingerBase
								{
									OFFSET 0.000000 0.000000 0.000000
									CHANNELS 3 Zrotation Yrotation Xrotation
									JOINT LeftHandIndex1
									{
										OFFSET 0.715260 -0.000000 -0.000000
										CHANNELS 3 Zrotation Yrotation Xrotation
										End Site
										{
											OFFSET 0.000000 0.000000 0.000000
										}
									}
								}
								JOINT LThumb
								{
									OFFSET 0.000000 0.000000 0.000000
									CHANNELS 3 Zrotation Yrotation Xrotation
									End Site
									{
										OFFSET 0.000000 0.000000 0.000000
									}
								}
							}
						}
					}
				}
				JOINT RightShoulder
				{
					OFFSET 0.000000 0.000000 0.000000
					CHANNELS 3 Zrotation Yrotation Xrotation
					JOINT RightArm
					{
						OFFSET -3.136600 1.374050 -0.404650
						CHANNELS 3 Zrotation Yrotation Xrotation
						JOINT RightForeArm
						{
							OFFSET -5.241900 -0.000000 -0.000000
							CHANNELS 3 Zrotation Yrotation Xrotation
							JOINT RightHand
							{
								OFFSET -3.444170 -0.000000 -0.000000
								CHANNELS 3 Zrotation Yrotation Xrotation
								JOINT RightFingerBase
								{
									OFFSET 0.000000 0.000000 0.000000
									CHANNELS 3 Zrotation Yrotation Xrotation
									JOINT RightHandIndex1
									{
										OFFSET -0.622530 -0.000000 -0.000000
										CHANNELS 3 Zrotation Yrotation Xrotation
										End Site
										{
											OFFSET 0.000000 0.000000 0.000000
										}
									}
								}
								JOINT RThumb
								{
									OFFSET 0.000000 0.000000 0.000000
									CHANNELS 3 Zrotation Yrotation Xrotation
									End Site
									{
										OFFSET 0.000000 0.000000 0.000000
									}
								}
							}
						}
					}
				}
			}
		}
	}
}
MOTION
Frames: 7
Frame Time: 0.008333
-11.589720 15.613548 -0.288814 -36.352511 87.850129 -7.764731 -11.679731 1.163245 -5.470144 -6.855471 14.561490 -26.838403 -2.015119 3.319371 53.406539 0.899867 2.888396 -18.571650 -0.814500 -0.000000 -68.962900 7.943858 1.129963 -1.523567 18.202852 -1.310439 -71.187094 2.296724 -5.590540 53.078986 -0.980678 -1.177887 -11.994788 0.032100 0.000000 -16.091700 5.564403 -3.207997 9.780117 0.490482 -3.173078 -0.638293 -5.716696 -3.076437 0.726770 9.406072 -15.900095 -10.999167 -2.697505 -0.131039 -1.353526 0.000000 0.000000 0.000000 9.329366 11.574565 1.062309 -52.573109 -4.579359 -5.011614 -178.737346 -72.169446 -179.986874 -1.674065 2.272297 -0.026085 -0.016349 0.429705 -0.000000 0.000000 0.000000 0.000000 0.000000 0.000000 0.000000 11.269231 -11.749126 1.347494 72.404214 -16.197863 3.993293 0.450467 75.172321 -0.036828 -11.626571 2.226916 -0.252612 0.176344 -0.227568 -0.000000 0.000000 0.000000 0.000000 0.000000 0.000000 0.000000 
-11.386158 15.582843 -0.264160 -32.048966 88.139788 -3.721565 -11.764036 1.264603 -5.404120 -6.569645 14.244572 -25.848819 -1.880822 3.320842 53.609013 0.826378 2.707440 -17.383035 -0.682000 0.000001 -70.271800 7.998105 1.260980 -1.667355 17.568366 -1.488489 -70.860628 2.049072 -5.680164 55.045058 -1.173817 -1.809865 -13.401759 0.154800 -0.000000 -11.570300 5.791715 -3.244905 9.847979 0.547770 -3.211861 -0.635695 -5.664987 -3.116668 0.695100 9.399886 -15.854239 -11.093859 -2.702193 -0.130228 -1.380133 0.000000 0.000000 0.000000 9.223057 11.646389 1.133639 -52.809887 -3.621370 -4.674629 -178.722817 -72.111065 -179.984292 -1.991372 2.106723 -0.028407 -0.009038 0.427828 -0.000000 0.000000 0.000000 0.000000 0.000000 0.000000 0.000000 11.288762 -11.624309 1.353065 72.196395 -16.100996 3.803351 0.456747 75.311947 -0.036528 -11.528251 2.249890 -0.252906 0.176863 -0.228497 -0.000000 0.000000 0.000000 0.000000 0.000000 0.000000 0.000000 
-11.183533 15.553108 -0.241586 -29.323501 88.386154 -1.216932 -11.834838 1.345630 -5.320370 -6.239940 13.810636 -24.989135 -1.719986 3.331219 53.957481 0.769310 2.617393 -16.132985 -0.569800 -0.000000 -70.986800 8.050592 1.359663 -1.807435 17.073984 -1.621466 -70.473219 1.832048 -5.757783 56.849563 -1.375570 -2.493627 -14.803772 0.308400 0.000000 -8.707700 6.083398 -3.275897 9.901008 0.617332 -3.243995 -0.639579 -5.623547 -3.150945 0.651678 9.412127 -15.756454 -11.171596 -2.717904 -0.130563 -1.402555 0.000000 0.000000 0.000000 9.086713 11.694570 1.209156 -53.122794 -2.599720 -4.315084 -178.710947 -72.087183 -179.981822 -2.303516 1.934609 -0.029726 -0.001872 0.425512 -0.000000 0.000000 0.000000 0.000000 0.000000 0.000000 0.000000 11.356609 -11.444290 1.359853 71.926159 -15.904469 3.627886 0.464542 75.418335 -0.036346 -11.450566 2.252893 -0.251601 0.177749 -0.229394 -0.000000 0.000000 0.000000 0.000000 0.000000 0.000000 0.000000 
-10.982197 15.525134 -0.220992 -28.913682 88.614103 -0.981903 -11.894334 1.399357 -5.219612 -5.889061 13.256240 -24.277367 -1.532318 3.345059 54.462944 0.733075 2.641189 -14.854670 -0.479600 -0.000001 -70.953399 8.097401 1.416884 -1.940085 16.717084 -1.719820 -70.040860 1.649430 -5.827212 58.462652 -1.579072 -3.195780 -16.174711 0.491600 0.000000 -7.252100 6.427063 -3.305155 9.934593 0.697978 -3.272573 -0.650087 -5.591532 -3.182233 0.598703 9.446126 -15.608131 -11.231067 -2.744195 -0.132024 -1.420373 0.000000 0.000000 0.000000 8.927438 11.721310 1.286792 -53.521841 -1.527808 -3.931341 -178.703405 -72.110866 -179.979541 -2.603223 1.761782 -0.029943 0.005019 0.422679 -0.000000 0.000000 0.000000 0.000000 0.000000 0.000000 0.000000 11.476299 -11.214445 1.366919 71.594526 -15.601700 3.465923 0.473790 75.485762 -0.036318 -11.401756 2.229511 -0.248295 0.179068 -0.230171 -0.000000 0.000000 0.000000 0.000000 0.000000 0.000000 0.000000 
-10.782951 15.499747 -0.202382 -31.381290 88.852080 -3.591068 -11.952320 1.413126 -5.109647 -5.534649 12.594198 -23.702254 -1.318079 3.354991 55.130086 0.719333 2.785678 -13.586461 -0.408700 -0.000001 -70.024000 8.129939 1.419338 -2.069940 16.484840 -1.812517 -69.562582 1.502968 -5.894273 59.875041 -1.776703 -3.879390 -17.497339 0.699600 -0.000000 -6.889500 6.800657 -3.337150 9.961364 0.786000 -3.300111 -0.662283 -5.567753 -3.212441 0.542449 9.507835 -15.421213 -11.276347 -2.779719 -0.134393 -1.435126 0.000000 0.000000 0.000000 8.760342 11.750421 1.363168 -54.023749 -0.468636 -3.499852 -178.702957 -72.226503 -179.977461 -2.890457 1.604889 -0.029455 0.011580 0.419084 -0.000000 0.000000 0.000000 0.000000 0.000000 0.000000 0.000000 11.656589 -10.952921 1.371694 71.202672 -15.182890 3.312783 0.483893 75.517715 -0.036491 -11.389545 2.174292 -0.242490 0.180793 -0.230780 -0.000000 0.000000 0.000000 0.000000 0.000000 0.000000 0.000000 
-10.585741 15.477401 -0.185540 -37.302366 89.131100 -9.601115 -12.032837 1.372572 -4.984737 -5.207483 11.826840 -23.308041 -1.079738 3.353668 55.975305 0.730837 3.067660 -12.394637 -0.355701 0.000000 -68.110800 8.126402 1.348799 -2.182536 16.352144 -1.896949 -69.078908 1.389253 -5.959433 61.071791 -1.965519 -4.534240 -18.723442 0.921800 -0.000000 -7.553100 7.173571 -3.381871 9.955991 0.876573 -3.338199 -0.682682 -5.548413 -3.253437 0.481456 9.591772 -15.193767 -11.300885 -2.822907 -0.137678 -1.444264 0.000000 0.000000 0.000000 8.585696 11.748525 1.437889 -54.624638 0.620402 -3.042463 -178.710253 -72.418534 -179.975659 -3.155034 1.461942 -0.028463 0.017692 0.414733 0.000000 0.000000 0.000000 0.000000 0.000000 0.000000 0.000000 11.883246 -10.663794 1.375417 70.764275 -14.654641 3.167744 0.495050 75.504026 -0.036883 -11.420569 2.086487 -0.234387 0.182988 -0.231168 -0.000000 0.000000 0.000000 0.000000 0.000000 0.000000 0.000000 
-10.390979 15.458480 -0.170217 -46.001239 89.433730 -18.339981 -12.168137 1.284355 -4.847081 -4.938882 10.987077 -23.100800 -0.829862 3.348630 56.992596 0.767264 3.488623 -11.340560 -0.316801 -0.000000 -65.166599 8.063009 1.215877 -2.282601 16.285376 -1.978763 -68.593210 1.300056 -6.012896 62.069377 -2.140489 -5.137035 -19.834577 1.148300 -0.000000 -8.977500 7.482262 -3.428936 9.923626 0.953970 -3.379960 -0.709329 -5.530920 -3.298107 0.419791 9.698682 -14.934807 -11.306799 -2.871128 -0.141591 -1.448396 0.000000 0.000000 0.000000 8.415590 11.728327 1.507558 -55.327737 1.711716 -2.551433 -178.727870 -72.713022 -179.974156 -3.395331 1.342243 -0.027271 0.023384 0.409432 -0.000000 0.000000 0.000000 0.000000 0.000000 0.000000 0.000000 12.153458 -10.356092 1.377664 70.292743 -14.015743 3.027363 0.507009 75.446698 -0.037525 -11.497719 1.966040 -0.223685 0.185664 -0.231392 -0.000000 0.000000 0.000000 0.000000 0.000000 0.000000 0.000000 
